<svg width="599" height="44" viewBox="0 0 599 44" fill="none" xmlns="http://www.w3.org/2000/svg">
<path d="M11.12 17.26H30.62V26.14H11.12V17.26ZM11.96 33.82H33.92V43H0.2V0.999997H33.14V10.18H11.96V33.82ZM40.5125 43V0.999997H52.3925V33.58H72.4325V43H40.5125ZM88.0536 17.26H107.554V26.14H88.0536V17.26ZM88.8936 33.82H110.854V43H77.1336V0.999997H110.074V10.18H88.8936V33.82ZM126.386 43V10.42H113.486V0.999997H151.106V10.42H138.266V43H126.386ZM155.532 43V0.999997H174.732C178.572 0.999997 181.872 1.62 184.632 2.86C187.432 4.1 189.592 5.9 191.112 8.26C192.632 10.58 193.392 13.34 193.392 16.54C193.392 19.7 192.632 22.44 191.112 24.76C189.592 27.04 187.432 28.8 184.632 30.04C181.872 31.24 178.572 31.84 174.732 31.84H162.132L167.412 26.86V43H155.532ZM181.512 43L171.072 27.7H183.732L194.232 43H181.512ZM167.412 28.12L162.132 22.66H174.012C176.492 22.66 178.332 22.12 179.532 21.04C180.772 19.96 181.392 18.46 181.392 16.54C181.392 14.58 180.772 13.06 179.532 11.98C178.332 10.9 176.492 10.36 174.012 10.36H162.132L167.412 4.9V28.12ZM199.946 43V0.999997H211.826V43H199.946ZM241.218 43.84C237.898 43.84 234.818 43.32 231.978 42.28C229.178 41.2 226.738 39.68 224.658 37.72C222.618 35.76 221.018 33.46 219.858 30.82C218.698 28.14 218.118 25.2 218.118 22C218.118 18.8 218.698 15.88 219.858 13.24C221.018 10.56 222.618 8.24 224.658 6.28C226.738 4.32 229.178 2.82 231.978 1.78C234.818 0.699997 237.898 0.159997 241.218 0.159997C245.098 0.159997 248.558 0.839998 251.598 2.2C254.678 3.56 257.238 5.52 259.278 8.08L251.718 14.92C250.358 13.32 248.858 12.1 247.218 11.26C245.618 10.42 243.818 10 241.818 10C240.098 10 238.518 10.28 237.078 10.84C235.638 11.4 234.398 12.22 233.358 13.3C232.358 14.34 231.558 15.6 230.958 17.08C230.398 18.56 230.118 20.2 230.118 22C230.118 23.8 230.398 25.44 230.958 26.92C231.558 28.4 232.358 29.68 233.358 30.76C234.398 31.8 235.638 32.6 237.078 33.16C238.518 33.72 240.098 34 241.818 34C243.818 34 245.618 33.58 247.218 32.74C248.858 31.9 250.358 30.68 251.718 29.08L259.278 35.92C257.238 38.44 254.678 40.4 251.598 41.8C248.558 43.16 245.098 43.84 241.218 43.84ZM264.575 43V0.999997H276.455V43H264.575ZM299.667 43.84C296.227 43.84 292.907 43.42 289.707 42.58C286.547 41.7 283.967 40.58 281.967 39.22L285.867 30.46C287.747 31.66 289.907 32.66 292.347 33.46C294.827 34.22 297.287 34.6 299.727 34.6C301.367 34.6 302.687 34.46 303.687 34.18C304.687 33.86 305.407 33.46 305.847 32.98C306.327 32.46 306.567 31.86 306.567 31.18C306.567 30.22 306.127 29.46 305.247 28.9C304.367 28.34 303.227 27.88 301.827 27.52C300.427 27.16 298.867 26.8 297.147 26.44C295.467 26.08 293.767 25.62 292.047 25.06C290.367 24.5 288.827 23.78 287.427 22.9C286.027 21.98 284.887 20.8 284.007 19.36C283.127 17.88 282.687 16.02 282.687 13.78C282.687 11.26 283.367 8.98 284.727 6.94C286.127 4.9 288.207 3.26 290.967 2.02C293.727 0.779998 297.167 0.159997 301.287 0.159997C304.047 0.159997 306.747 0.479998 309.387 1.12C312.067 1.72 314.447 2.62 316.527 3.82L312.867 12.64C310.867 11.56 308.887 10.76 306.927 10.24C304.967 9.68 303.067 9.4 301.227 9.4C299.587 9.4 298.267 9.58 297.267 9.94C296.267 10.26 295.547 10.7 295.107 11.26C294.667 11.82 294.447 12.46 294.447 13.18C294.447 14.1 294.867 14.84 295.707 15.4C296.587 15.92 297.727 16.36 299.127 16.72C300.567 17.04 302.127 17.38 303.807 17.74C305.527 18.1 307.227 18.56 308.907 19.12C310.627 19.64 312.187 20.36 313.587 21.28C314.987 22.16 316.107 23.34 316.947 24.82C317.827 26.26 318.267 28.08 318.267 30.28C318.267 32.72 317.567 34.98 316.167 37.06C314.807 39.1 312.747 40.74 309.987 41.98C307.267 43.22 303.827 43.84 299.667 43.84ZM332.109 43V10.42H319.209V0.999997H356.829V10.42H343.989V43H332.109ZM354.105 43L372.645 0.999997H384.345L402.945 43H390.585L376.065 6.82H380.745L366.225 43H354.105ZM364.245 34.84L367.305 26.08H387.825L390.885 34.84H364.245ZM423.774 43V0.999997H443.634C448.274 0.999997 452.354 1.86 455.874 3.58C459.394 5.3 462.134 7.72 464.094 10.84C466.094 13.96 467.094 17.68 467.094 22C467.094 26.28 466.094 30 464.094 33.16C462.134 36.28 459.394 38.7 455.874 40.42C452.354 42.14 448.274 43 443.634 43H423.774ZM435.654 33.52H443.154C445.554 33.52 447.634 33.08 449.394 32.2C451.194 31.28 452.594 29.96 453.594 28.24C454.594 26.48 455.094 24.4 455.094 22C455.094 19.56 454.594 17.48 453.594 15.76C452.594 14.04 451.194 12.74 449.394 11.86C447.634 10.94 445.554 10.48 443.154 10.48H435.654V33.52ZM467.719 43L486.259 0.999997H497.959L516.559 43H504.199L489.679 6.82H494.359L479.839 43H467.719ZM477.859 34.84L480.919 26.08H501.439L504.499 34.84H477.859ZM534.687 43.84C531.247 43.84 527.927 43.42 524.727 42.58C521.567 41.7 518.987 40.58 516.987 39.22L520.887 30.46C522.767 31.66 524.927 32.66 527.367 33.46C529.847 34.22 532.307 34.6 534.747 34.6C536.387 34.6 537.707 34.46 538.707 34.18C539.707 33.86 540.427 33.46 540.867 32.98C541.347 32.46 541.587 31.86 541.587 31.18C541.587 30.22 541.147 29.46 540.267 28.9C539.387 28.34 538.247 27.88 536.847 27.52C535.447 27.16 533.887 26.8 532.167 26.44C530.487 26.08 528.787 25.62 527.067 25.06C525.387 24.5 523.847 23.78 522.447 22.9C521.047 21.98 519.907 20.8 519.027 19.36C518.147 17.88 517.707 16.02 517.707 13.78C517.707 11.26 518.387 8.98 519.747 6.94C521.147 4.9 523.227 3.26 525.987 2.02C528.747 0.779998 532.187 0.159997 536.307 0.159997C539.067 0.159997 541.767 0.479998 544.407 1.12C547.087 1.72 549.467 2.62 551.547 3.82L547.887 12.64C545.887 11.56 543.907 10.76 541.947 10.24C539.987 9.68 538.087 9.4 536.247 9.4C534.607 9.4 533.287 9.58 532.287 9.94C531.287 10.26 530.567 10.7 530.127 11.26C529.687 11.82 529.467 12.46 529.467 13.18C529.467 14.1 529.887 14.84 530.727 15.4C531.607 15.92 532.747 16.36 534.147 16.72C535.587 17.04 537.147 17.38 538.827 17.74C540.547 18.1 542.247 18.56 543.927 19.12C545.647 19.64 547.207 20.36 548.607 21.28C550.007 22.16 551.127 23.34 551.967 24.82C552.847 26.26 553.287 28.08 553.287 30.28C553.287 32.72 552.587 34.98 551.187 37.06C549.827 39.1 547.767 40.74 545.007 41.98C542.287 43.22 538.847 43.84 534.687 43.84ZM586.854 0.999997H598.734V43H586.854V0.999997ZM570.654 43H558.774V0.999997H570.654V43ZM587.694 26.62H569.814V16.78H587.694V26.62Z" fill="white"/>
</svg>
