<svg width="103" height="103" viewBox="0 0 103 103" fill="none" xmlns="http://www.w3.org/2000/svg">
<path d="M74.7 57L64.1 67.6C63.6 68.1 63.6 68.9 64.1 69.4C64.3 69.6 64.7 69.8 65 69.8C65.3 69.8 65.6 69.7 65.9 69.4L76.5 58.8C77 58.3 77 57.5 76.5 57C76 56.5 75.2 56.5 74.7 57Z" fill="#045389"/>
<path d="M73 53.5C72.5 53 71.7 53 71.2 53.5L60.6 64.1C60.1 64.6 60.1 65.4 60.6 65.9C60.8 66.1 61.2 66.3 61.5 66.3C61.8 66.3 62.1 66.2 62.4 65.9L73 55.3C73.4 54.8 73.4 54 73 53.5Z" fill="#045389"/>
<path d="M69.4 50C68.9 49.5 68.1 49.5 67.6 50L57.1 60.6C56.6 61.1 56.6 61.9 57.1 62.4C57.3 62.6 57.7 62.8 58 62.8C58.3 62.8 58.6 62.7 58.9 62.4L69.5 51.8C69.9 51.2 69.9 50.4 69.4 50Z" fill="#045389"/>
<path d="M88 15.1C78.7 5.8 65.9 0 51.8 0C23.5 0 0.5 23 0.5 51.3C0.5 65.4 6.2 78.2 15.5 87.5C24.8 96.8 37.6 102.5 51.7 102.5C80 102.5 103 79.5 103 51.2C103 37.2 97.3 24.4 88 15.1ZM51.8 2.5C64.8 2.5 76.6 7.6 85.3 16L60.4 40.9L58.9 39.4C58.4 38.9 57.6 38.9 57.1 39.4L56.2 40.3L53.5 37.6L42.9 27C42.4 26.5 41.6 26.5 41.1 27L38.1 30C37.3 29.2 36.5 28.5 35.8 27.9C32.5 25.2 29.2 23.5 26 22.8C21 21.8 16.5 23.2 12.5 27.2C12 27.7 12 28.5 12.5 29C13 29.5 13.8 29.5 14.3 29C18.8 24.5 23.5 24.3 27.8 25.9C25.6 26.9 23.3 29.1 20 32.3C19.5 32.8 19.5 33.6 20 34.1C20.2 34.3 20.6 34.5 20.9 34.5C21.2 34.5 21.5 34.4 21.8 34.1C27.4 28.5 29.4 26.6 32.7 28.6C33.9 29.4 36.3 31.6 36.4 31.7L34.1 34C33.6 34.5 33.6 35.3 34.1 35.8L44.7 46.4L47.4 49.1L46.5 50C46 50.5 46 51.3 46.5 51.8L48 53.3L16.5 84.8C8.1 76.1 3 64.3 3 51.3C3 24.4 24.9 2.5 51.8 2.5ZM78.3 60.6L67.7 71.2L65.1 73.8L55.7 64.4C55.6 60.4 54 56.5 51.5 53.3L60.6 44.2C63.7 46.8 67.6 48.3 71.7 48.4L81.1 57.8L78.3 60.6ZM49.1 50.9L50 50C50.5 49.5 50.5 48.7 50 48.2L47.3 45.5L52.6 40.2L55.3 42.9C55.8 43.4 56.6 43.4 57.1 42.9L58 42L58.7 42.7L49.9 51.5L49.1 50.9ZM42 29.6L50.8 38.4L45.5 43.8L36.7 35L42 29.6ZM51.8 100.1C38.8 100.1 27 95 18.3 86.6L49.7 55.2C51.9 58 53.2 61.4 53.2 65C53.2 65.3 53.3 65.6 53.6 65.9L64.2 76.5C64.4 76.7 64.8 76.9 65.1 76.9C65.4 76.9 65.7 76.8 66 76.5L68.7 73.8L78.4 83.5C78.6 83.7 79 83.9 79.3 83.9C79.6 83.9 79.9 83.8 80.2 83.5C80.7 83 80.7 82.2 80.2 81.7L70.5 72L79.3 63.2L89 72.9C89.2 73.1 89.6 73.3 89.9 73.3C90.2 73.3 90.5 73.2 90.8 72.9C91.3 72.4 91.3 71.6 90.8 71.1L81.1 61.4L83.8 58.7C84.3 58.2 84.3 57.4 83.8 56.9L73 46.4C72.8 46.2 72.3 46 72 46C68.5 46 65.1 44.7 62.3 42.5L87.1 17.7C95.4 26.4 100.6 38.2 100.6 51.2C100.5 78.2 78.6 100.1 51.8 100.1Z" fill="#045389"/>
</svg>
