<svg width="104" height="103" viewBox="0 0 104 103" fill="none" xmlns="http://www.w3.org/2000/svg">
<path d="M48.7759 30.0001L52.8759 21.8001C53.1759 21.2001 52.9759 20.4001 52.2759 20.1001C51.6759 19.8001 50.8759 20.0001 50.5759 20.7001L45.5759 30.7001C45.3759 31.1001 45.3759 31.5001 45.6759 31.9001C45.8759 32.3001 46.2759 32.5001 46.7759 32.5001H54.7759L50.6759 40.7001C50.3759 41.3001 50.5759 42.1001 51.2759 42.4001C51.4759 42.5001 51.6759 42.5001 51.8759 42.5001C52.3759 42.5001 52.7759 42.2001 52.9759 41.8001L57.9759 31.8001C58.1759 31.4001 58.1759 31.0001 57.8759 30.6001C57.6759 30.2001 57.2759 30.0001 56.7759 30.0001H48.7759Z" fill="#045389"/>
<path d="M51.7759 12.6001C48.6759 12.6001 45.8759 14.1001 44.0759 16.7001L13.0759 63.2001C11.1759 66.1001 10.9759 69.6001 12.5759 72.6001C14.1759 75.6001 17.2759 77.5001 20.6759 77.5001H82.6759C86.1759 77.5001 89.1759 75.7001 90.7759 72.6001C92.3759 69.6001 92.2759 66.0001 90.2759 63.2001L59.2759 16.7001C57.6759 14.1001 54.7759 12.6001 51.7759 12.6001ZM88.6759 71.5001C87.4759 73.7001 85.2759 75.0001 82.7759 75.0001H20.7759C18.2759 75.0001 16.0759 73.7001 14.8759 71.5001C13.6759 69.3001 13.7759 66.7001 15.1759 64.6001L46.1759 18.1001C47.4759 16.2001 49.4759 15.1001 51.7759 15.1001C54.0759 15.1001 56.0759 16.2001 57.3759 18.1001L88.3759 64.6001C89.6759 66.7001 89.8759 69.3001 88.6759 71.5001Z" fill="#045389"/>
<path d="M51.7759 0C23.4759 0 0.475891 23 0.475891 51.3C0.475891 79.6 23.4759 102.6 51.7759 102.6C80.0759 102.6 103.076 79.6 103.076 51.3C103.076 23 79.9759 0 51.7759 0ZM51.7759 100.1C24.8759 100.1 2.97589 78.2 2.97589 51.3C2.97589 24.4 24.8759 2.5 51.7759 2.5C78.6759 2.5 100.476 24.4 100.476 51.3C100.476 78.2 78.5759 100.1 51.7759 100.1Z" fill="#045389"/>
<path d="M41.7759 50H31.7759C31.0759 50 30.4759 50.6 30.4759 51.3C30.4759 52 31.0759 52.6 31.7759 52.6H40.4759V60H31.6759C30.9759 60 30.3759 60.6 30.3759 61.3V71.3C30.3759 72 30.9759 72.6 31.6759 72.6H41.6759C42.3759 72.6 42.9759 72 42.9759 71.3C42.9759 70.6 42.3759 70 41.6759 70H32.8759V62.5H41.6759C42.3759 62.5 42.9759 61.9 42.9759 61.2V51.2C42.9759 50.6 42.3759 50 41.7759 50Z" fill="#045389"/>
<path d="M56.7759 50H46.7759C46.0759 50 45.4759 50.6 45.4759 51.3C45.4759 52 46.0759 52.6 46.7759 52.6H55.4759V60H46.6759C45.9759 60 45.3759 60.6 45.3759 61.3V71.3C45.3759 72 45.9759 72.6 46.6759 72.6H56.6759C57.3759 72.6 57.9759 72 57.9759 71.3C57.9759 70.6 57.3759 70 56.6759 70H47.8759V62.5H56.6759C57.3759 62.5 57.9759 61.9 57.9759 61.2V51.2C57.9759 50.6 57.3759 50 56.7759 50Z" fill="#045389"/>
<path d="M61.7759 72.6H71.7759C72.4759 72.6 73.0759 72 73.0759 71.3V51.3C73.0759 50.6 72.4759 50 71.7759 50H61.7759C61.0759 50 60.4759 50.6 60.4759 51.3V71.3C60.4759 72 61.0759 72.6 61.7759 72.6ZM62.9759 52.5H70.4759V70H62.9759V52.5Z" fill="#045389"/>
</svg>
