<svg width="104" height="103" viewBox="0 0 104 103" fill="none" xmlns="http://www.w3.org/2000/svg">
<path d="M58.2759 50.6783C58.0759 50.2783 57.6759 49.9783 57.1759 49.9783H49.4759L58.0759 37.0783C58.4759 36.4783 58.2759 35.6783 57.7759 35.3783C57.1759 34.9783 56.3759 35.1783 56.0759 35.6783L46.1759 50.5783C45.8759 50.9783 45.8759 51.4783 46.0759 51.8783C46.2759 52.2783 46.6759 52.5783 47.1759 52.5783H54.7759L45.9759 65.7783C45.5759 66.3783 45.7759 67.0783 46.2759 67.4783C46.4759 67.5783 46.7759 67.6783 46.9759 67.6783C47.3759 67.6783 47.7759 67.4783 47.9759 67.0783L58.0759 51.9783C58.4759 51.5783 58.4759 51.0783 58.2759 50.6783Z" fill="#045389"/>
<path d="M77.5759 57.2783C78.0759 55.2783 78.2759 53.2783 78.2759 51.2783C78.2759 46.3783 76.8759 41.6783 74.4759 37.7783L87.2759 24.9783L93.0759 22.1783C93.2759 22.0783 93.3759 21.9783 93.5759 21.7783L103.076 9.27835C103.476 8.77835 103.376 8.07835 102.976 7.67835L95.9759 0.578347C95.5759 0.178347 94.8759 0.078347 94.3759 0.478347L81.5759 9.87835C81.3759 9.97835 81.2759 10.1783 81.1759 10.3783L78.3759 16.1783L65.6759 28.8783C61.8759 26.5783 57.6759 25.2783 53.1759 25.0783C52.9759 18.4783 50.3759 12.3783 45.5759 7.67835C38.9759 1.07835 29.3759 -1.52165 20.3759 0.878347C19.1759 1.17835 19.0759 2.27835 19.7759 2.97835L34.4759 17.6783L30.4759 29.5783L18.5759 33.5783L4.07588 18.9783C3.47588 18.3783 2.37588 18.4783 1.97588 19.8783C-0.324116 28.7783 2.27588 38.2783 8.77588 44.7783C13.4759 49.4783 19.5759 52.0783 26.1759 52.3783C26.2759 54.0783 26.4759 55.7783 26.8759 57.3783L4.87588 79.3783C-0.424116 84.6784 -0.424116 93.2783 5.07588 98.7783C7.77588 101.478 11.1759 102.778 14.6759 102.778C18.1759 102.778 21.6759 101.478 24.2759 98.7783L46.2759 76.7783C48.2759 77.2783 50.2759 77.4783 52.3759 77.4783C54.3759 77.4783 56.4759 77.1783 58.3759 76.7783L83.6759 102.078C83.8759 102.278 84.2759 102.478 84.5759 102.478H93.3759C93.6759 102.478 93.9759 102.378 94.2759 102.078L103.076 93.2783C103.276 93.0783 103.476 92.6784 103.476 92.3783V83.5783C103.476 83.2783 103.376 82.9783 103.076 82.6783L77.5759 57.2783ZM80.3759 17.7783C80.4759 17.6783 80.5759 17.5783 80.5759 17.4783L83.2759 11.7783L94.8759 3.07835L100.376 8.67835L91.7759 20.0783L86.0759 22.7783C85.9759 22.8783 85.8759 22.8783 85.7759 22.9783L72.9759 35.6783C71.4759 33.6783 69.7759 31.8783 67.7759 30.3783L80.3759 17.7783ZM3.97588 22.3783L17.5759 35.9783C17.7759 36.1783 18.1759 36.3783 18.4759 36.3783C18.5759 36.3783 18.7759 36.3783 18.8759 36.2783L32.0759 31.8783C32.4759 31.7783 32.7759 31.4783 32.8759 31.0783L37.2759 17.8783C37.4759 17.4783 37.2759 16.9783 36.9759 16.5783L23.2759 2.97835C30.7759 1.77835 38.4759 4.17835 43.8759 9.57835C48.1759 13.7783 50.4759 19.2783 50.6759 25.2783C37.4759 25.9783 26.8759 36.5783 26.0759 49.8783C20.1759 49.6783 14.5759 47.2783 10.3759 43.0783C5.07588 37.5783 2.67588 29.8783 3.97588 22.3783ZM22.3759 96.8783C18.0759 101.178 10.9759 101.178 6.57588 96.6783C2.27588 92.3783 2.27588 85.2784 6.57588 80.9783L27.5759 59.9783C27.9759 61.2783 28.5759 62.4783 29.1759 63.6783L11.7759 81.0783C11.2759 81.5783 11.2759 82.3783 11.7759 82.8783C11.9759 83.0783 12.3759 83.2783 12.6759 83.2783C12.9759 83.2783 13.2759 83.1784 13.5759 82.8783L30.5759 65.8783C31.2759 66.8783 32.0759 67.8783 32.8759 68.7783L11.7759 89.8783C11.2759 90.3783 11.2759 91.1783 11.7759 91.6783C11.9759 91.8783 12.3759 92.0783 12.6759 92.0783C12.9759 92.0783 13.2759 91.9783 13.5759 91.6783L34.6759 70.5783C35.5759 71.3783 36.5759 72.1784 37.6759 72.8783L20.6759 89.8783C20.1759 90.3783 20.1759 91.1783 20.6759 91.6783C20.8759 91.8783 21.2759 92.0783 21.5759 92.0783C21.8759 92.0783 22.1759 91.9783 22.4759 91.6783L39.7759 74.2783C40.9759 74.8783 42.1759 75.4783 43.3759 75.8783L22.3759 96.8783ZM45.9759 74.0783C41.9759 72.9783 38.2759 70.8783 35.3759 67.9783C32.4759 65.0783 30.2759 61.3783 29.2759 57.3783C28.7759 55.3783 28.4759 53.3783 28.4759 51.1783C28.4759 38.1783 39.0759 27.5783 52.1759 27.5783C56.7759 27.5783 61.2759 28.9783 65.2759 31.4783C67.9759 33.2783 70.2759 35.5783 71.9759 38.1783C74.5759 41.9783 75.8759 46.4783 75.8759 51.1783C75.8759 53.2783 75.5759 55.2783 75.0759 57.2783C72.8759 65.3783 66.4759 71.7784 58.3759 73.9783C54.2759 75.1783 50.0759 75.1783 45.9759 74.0783ZM100.776 91.7783L92.6759 99.8783H84.8759L60.8759 75.8783C68.2759 73.2784 74.0759 67.3783 76.6759 60.0783L100.676 84.0783V91.7783H100.776Z" fill="#045389"/>
<path d="M79.0759 88.7784C80.5759 90.2784 82.4759 90.9784 84.3759 90.9784C86.2759 90.9784 88.1759 90.2784 89.6759 88.7784C92.5759 85.8784 92.5759 81.0784 89.6759 78.1784C86.7759 75.2784 81.9759 75.2784 79.0759 78.1784C76.1759 81.1784 76.1759 85.8784 79.0759 88.7784ZM80.8759 79.9784C81.8759 78.9784 83.0759 78.4784 84.3759 78.4784C85.6759 78.4784 86.8759 78.9784 87.8759 79.9784C89.7759 81.8784 89.7759 85.0784 87.8759 86.9784C85.9759 88.8784 82.7759 88.8784 80.8759 86.9784C78.9759 85.0784 78.9759 81.8784 80.8759 79.9784Z" fill="#045389"/>
</svg>
