<svg width="103" height="103" viewBox="0 0 103 103" fill="none" xmlns="http://www.w3.org/2000/svg">
<path d="M0.978775 62.6133C1.37878 62.6133 1.67878 62.4133 1.97878 62.2133L9.77878 52.9133V101.413C9.77878 102.113 10.3788 102.713 11.0788 102.713H91.0788C91.7788 102.713 92.3788 102.113 92.3788 101.413V52.8134L100.179 62.1133C100.379 62.4133 100.779 62.5134 101.179 62.5134C101.479 62.5134 101.779 62.4133 101.979 62.2133C102.479 61.8133 102.579 61.0133 102.179 60.4133L52.1788 0.413349C51.6788 -0.0866512 50.8788 -0.186651 50.2788 0.413349L0.278775 60.4133C-0.121225 60.9133 -0.121225 61.7133 0.478775 62.2133C0.378775 62.5133 0.678775 62.6133 0.978775 62.6133ZM89.6788 100.113C66.0788 99.8133 52.8788 90.1133 52.2788 72.6133H55.9788C56.2788 72.6133 56.5788 72.5134 56.8788 72.2133L61.8788 67.2133C62.0788 67.0134 62.2788 66.6133 62.2788 66.3133V51.3134C62.2788 50.6133 61.6788 50.0134 60.9788 50.0134H57.1788V41.2133C57.1788 40.5133 56.5788 39.9133 55.8788 39.9133C55.1788 39.9133 54.5788 40.5133 54.5788 41.2133V50.1133H47.0788V41.3134C47.0788 40.6133 46.4788 40.0134 45.7788 40.0134C45.0788 40.0134 44.4788 40.6133 44.4788 41.3134V50.1133H40.6788C39.9788 50.1133 39.3788 50.7133 39.3788 51.4133V66.4134C39.3788 66.7134 39.4788 67.0133 39.7788 67.3133L44.7788 72.3133C44.9788 72.5133 45.3788 72.7133 45.6788 72.7133H49.4788C49.8788 86.6133 57.5788 96.0134 71.5788 100.213H12.1788V49.8134L50.9788 3.31335L89.6788 49.8134V100.113ZM59.6788 52.6133V65.8133L55.3788 70.1133H46.3788L42.0788 65.8133V52.6133H59.6788Z" fill="#045389"/>
<path d="M45.9788 57.6133H55.9788C56.6788 57.6133 57.2788 57.0133 57.2788 56.3133C57.2788 55.6133 56.5788 55.1133 55.9788 55.1133H45.9788C45.2788 55.1133 44.6788 55.7133 44.6788 56.4133C44.6788 57.1133 45.2788 57.6133 45.9788 57.6133Z" fill="#045389"/>
<path d="M45.9788 62.6133H55.9788C56.6788 62.6133 57.2788 62.0133 57.2788 61.3133C57.2788 60.6133 56.5788 60.1133 55.9788 60.1133H45.9788C45.2788 60.1133 44.6788 60.7133 44.6788 61.4133C44.6788 62.1133 45.2788 62.6133 45.9788 62.6133Z" fill="#045389"/>
</svg>
