<svg width="63" height="103" viewBox="0 0 63 103" fill="none" xmlns="http://www.w3.org/2000/svg">
<path d="M42.5 82.4353H42.8C45.4 82.4353 47.5 80.3353 47.5 77.7353V71.4353C47.5 63.8353 49.9 57.0353 54.4 52.1353C59.6 46.3353 62.5 38.9353 62.5 31.1353C62.5 22.2353 58.7 13.7353 52 7.73528C45.4 1.93528 36.4 -0.86472 27.5 0.23528C13.9 1.83528 2.50001 12.7353 0.400007 26.2353C-0.999993 35.4353 1.50001 44.3353 7.40001 51.3353C12.3 57.1353 15 64.2353 15 71.4353V77.7353C15 80.3353 17.1 82.4353 19.7 82.4353H20V91.4353C20.2 94.2353 22.3 96.5353 25 97.1353V101.235C25 101.935 25.6 102.535 26.3 102.535H36.3C37 102.535 37.6 101.935 37.6 101.235V97.1353C40.3 96.4353 42.4 94.2353 42.6 91.4353L42.5 82.4353ZM17.5 77.8353V71.5353C17.5 63.7353 14.6 56.0353 9.30001 49.8353C3.80001 43.3353 1.60001 35.1353 2.90001 26.7353C4.80001 14.2353 15.3 4.13528 27.8 2.73528C29 2.63528 30.2 2.53528 31.3 2.53528C38.4 2.53528 45 5.03528 50.4 9.83528C56.5 15.3353 60 23.1353 60 31.3353C60 38.5353 57.3 45.3353 52.5 50.6353C47.6 55.9353 45 63.4353 45 71.6353V77.9353C45 79.1353 44 80.1353 42.8 80.1353H37.5V71.3353C37.5 68.5353 35.6 66.2353 33 65.4353L47.4 31.8353C48.1 30.2353 46.7 29.4353 45.6 30.3353L31.3 39.8353L17 30.3353C15.8 29.6353 14.6 30.4353 15.2 31.8353L29.6 65.4353C27 66.1353 25.1 68.4353 25.1 71.3353V79.9353H19.8C18.5 79.9353 17.5 79.0353 17.5 77.8353ZM31.2 67.4353C33.3 67.4353 35 69.1353 35 71.1353V79.9353H27.5V71.1353C27.5 69.1353 29.2 67.4353 31.2 67.4353ZM31.3 62.9353L19.1 34.6353L30.6 42.3353C30.8 42.4353 31 42.5353 31.3 42.5353C31.5 42.5353 31.8 42.4353 32 42.3353L43.5 34.6353L31.3 62.9353ZM35 99.9353H27.5V97.4353H35V99.9353ZM36 94.9353H26.5C24.8 94.9353 23.4 93.9353 22.8 92.4353H26.2C26.9 92.4353 27.5 91.8353 27.5 91.1353C27.5 90.4353 26.9 89.9353 26.3 89.9353H22.5V87.4353H26.3C27 87.4353 27.6 86.8353 27.6 86.1353C27.6 85.4353 26.9 84.9353 26.3 84.9353H22.5V82.4353H40V84.9353H36.2C35.5 84.9353 34.9 85.5353 34.9 86.2353C34.9 86.9353 35.5 87.5353 36.2 87.5353H40V89.9353H36.2C35.5 89.9353 34.9 90.5353 34.9 91.2353C34.9 91.9353 35.5 92.5353 36.2 92.5353H39.6C39.1 93.9353 37.7 94.9353 36 94.9353Z" fill="#045389"/>
</svg>
