<svg width="133" height="102" viewBox="0 0 133 102" fill="none" xmlns="http://www.w3.org/2000/svg">
<path d="M104.697 102C95.0938 102 87.0841 98.7716 80.8726 92.4375C74.7019 86.1034 71.5553 76.9904 71.5553 65.3437C71.5553 53.0841 75.1106 40.9062 82.1394 29.0962C89.1683 17.3269 99.1803 7.84615 111.889 0.939904L113.524 0.0408654L124.639 16.8774L123.005 18.0216C116.466 22.5577 111.195 27.625 107.394 33.101C104.166 37.6779 101.877 42.9086 100.447 48.7115C102.163 48.3437 103.962 48.1394 105.923 48.1394C113.728 48.1394 120.226 50.6731 125.252 55.7404C130.279 60.7668 132.853 67.2644 132.853 75.0288C132.853 83.1202 130.156 89.7404 124.803 94.6442C119.409 99.5072 112.666 102 104.697 102ZM112.216 5.4351C100.938 11.8918 91.988 20.5553 85.6538 31.1803C78.9928 42.3365 75.6418 53.8197 75.6418 65.3029C75.6418 75.8462 78.3798 84.0192 83.8149 89.5361C89.2909 95.1346 96.1562 97.8726 104.697 97.8726C111.726 97.8726 117.365 95.8293 121.983 91.5793C126.519 87.4111 128.726 81.976 128.726 74.988C128.726 68.3269 126.56 62.8101 122.351 58.5601C118.06 54.2692 112.666 52.1851 105.882 52.1851C103.103 52.1851 100.611 52.6346 98.5264 53.5745L95.0529 55.0865L95.7067 51.3269C97.0553 43.5625 99.8341 36.6562 104.002 30.6899C107.803 25.2957 112.829 20.2692 119.041 15.774L112.216 5.4351ZM33.1418 102C23.5385 102 15.5288 98.7716 9.31731 92.4375C3.14663 86.1034 0 76.9904 0 65.3029C0 53.0433 3.55529 40.8654 10.5841 29.0553C17.613 17.2861 27.625 7.80529 40.3341 0.899038L41.9687 0L53.0433 16.8365L51.4087 17.9808C44.8702 22.5168 39.5986 27.5841 35.7981 33.0601C32.5697 37.637 30.2812 42.8678 28.851 48.6707C30.5673 48.3029 32.3654 48.0986 34.3269 48.0986C42.1322 48.0986 48.6298 50.6322 53.6562 55.6995C58.6827 60.7668 61.2572 67.3053 61.2572 75.0288C61.2572 83.1202 58.5601 89.7404 53.2067 94.6442C47.9351 99.5072 41.1514 102 33.1418 102ZM40.6611 5.39423C29.3822 11.851 20.4327 20.5144 14.0986 31.1394C7.4375 42.2957 4.08654 53.7788 4.08654 65.3029C4.08654 75.887 6.82452 84.0601 12.2596 89.5769C17.7356 95.1755 24.601 97.9135 33.1418 97.9135C40.0889 97.9135 45.9327 95.7885 50.4279 91.6202C54.9639 87.4519 57.1707 82.0168 57.1707 75.0288C57.1707 68.2861 55.0865 62.8918 50.7548 58.5601C46.4639 54.2692 41.0697 52.1851 34.3269 52.1851C31.5481 52.1851 29.0553 52.6346 26.9712 53.5745L23.4976 55.0865L24.1514 51.3269C25.5 43.5625 28.2788 36.6562 32.4471 30.6899C36.2476 25.2957 41.274 20.2692 47.4856 15.774L40.6611 5.39423Z" fill="#045389"/>
</svg>
