<svg width="103" height="103" viewBox="0 0 103 103" fill="none" xmlns="http://www.w3.org/2000/svg">
<path d="M96.7255 0H6.72554C3.22554 0 0.425537 2.9 0.425537 6.3V96.3C0.425537 99.7 3.22554 102.6 6.62554 102.6H96.6255C100.026 102.6 102.926 99.8 102.926 96.3V6.3C102.926 2.9 100.126 0 96.7255 0ZM100.426 96.3C100.426 98.4 98.7255 100.1 96.6255 100.1H6.62554C4.52554 100.1 2.92554 98.4 2.92554 96.3V6.3C2.92554 4.2 4.62554 2.5 6.62554 2.5H96.6255C98.7255 2.5 100.426 4.2 100.426 6.3V96.3Z" fill="#045389"/>
<path d="M84.0255 10H19.3255C14.4255 10 10.4255 14 10.4255 19V83.7C10.4255 88.6 14.4255 92.6 19.3255 92.6H84.0255C88.9255 92.6 92.9255 88.6 92.9255 83.7V19C92.9255 14 88.9255 10 84.0255 10ZM90.4255 83.6C90.4255 87.1 87.5255 90 84.0255 90H19.3255C15.8255 90 12.9255 87.1 12.9255 83.6V19C12.9255 15.5 15.8255 12.6 19.3255 12.6H84.0255C87.5255 12.6 90.4255 15.5 90.4255 19V83.6Z" fill="#045389"/>
<path d="M51.7255 20C34.4255 20 20.4255 34.1 20.4255 51.3C20.4255 68.5 34.4255 82.6 51.7255 82.6C69.0255 82.6 83.0255 68.6 83.0255 51.3C82.9255 34.1 68.9255 20 51.7255 20ZM51.7255 80.1C35.8255 80.1 22.9255 67.2 22.9255 51.3C22.9255 35.4 35.8255 22.5 51.7255 22.5C67.6255 22.5 80.4255 35.4 80.4255 51.3C80.4255 67.2 67.5255 80.1 51.7255 80.1Z" fill="#045389"/>
<path d="M51.7255 25C37.2255 25 25.4255 36.8 25.4255 51.3C25.4255 65.8 37.2255 77.6 51.7255 77.6C66.2255 77.6 78.0255 65.8 78.0255 51.3C77.9255 36.8 66.1255 25 51.7255 25ZM52.9255 74.9V71.3C52.9255 70.6 52.3255 70 51.6255 70C50.9255 70 50.4255 70.6 50.4255 71.3V74.9C37.9255 74.2 27.9255 63.9 27.9255 51.3C27.9255 38.6 37.9255 28.3 50.4255 27.7V31.3C50.4255 32 51.0255 32.6 51.7255 32.6C52.4255 32.6 53.0255 32 53.0255 31.3V27.7C65.4255 28.3 75.4255 38.6 75.4255 51.3C75.4255 64 65.4255 74.3 52.9255 74.9Z" fill="#045389"/>
<path d="M41.7255 45C38.3255 45 35.4255 47.8 35.4255 51.3C35.4255 54.7 38.2255 57.6 41.7255 57.6C45.2255 57.6 48.0255 54.8 48.0255 51.3C47.9255 47.9 45.1255 45 41.7255 45ZM41.7255 55C39.6255 55 37.9255 53.3 37.9255 51.2C37.9255 49.1 39.6255 47.4 41.7255 47.4C43.8255 47.4 45.5255 49.1 45.5255 51.2C45.5255 53.3 43.7255 55 41.7255 55Z" fill="#045389"/>
<path d="M61.7255 45C58.3255 45 55.4255 47.8 55.4255 51.3C55.4255 54.7 58.2255 57.6 61.7255 57.6C65.1255 57.6 68.0255 54.8 68.0255 51.3C67.9255 47.9 65.1255 45 61.7255 45ZM61.7255 55C59.6255 55 57.9255 53.3 57.9255 51.2C57.9255 49.1 59.6255 47.4 61.7255 47.4C63.8255 47.4 65.5255 49.1 65.5255 51.2C65.5255 53.3 63.7255 55 61.7255 55Z" fill="#045389"/>
</svg>
